<?xml version="1.0" encoding="UTF-8" standalone="no"?>
<svg
   width="2.42in"
   height="2.42in"
   viewBox="0 0 726 726"
   version="1.1"
   id="svg1"
   sodipodi:docname="SwordUpright.svg"
   inkscape:version="1.3.2 (091e20e, 2023-11-25, custom)"
   xmlns:inkscape="http://www.inkscape.org/namespaces/inkscape"
   xmlns:sodipodi="http://sodipodi.sourceforge.net/DTD/sodipodi-0.dtd"
   xmlns="http://www.w3.org/2000/svg"
   xmlns:svg="http://www.w3.org/2000/svg">
  <defs
     id="defs1" />
  <sodipodi:namedview
     id="namedview1"
     pagecolor="#ffffff"
     bordercolor="#000000"
     borderopacity="0.25"
     inkscape:showpageshadow="2"
     inkscape:pageopacity="0.0"
     inkscape:pagecheckerboard="0"
     inkscape:deskcolor="#d1d1d1"
     inkscape:document-units="in"
     inkscape:zoom="4.9977156"
     inkscape:cx="118.25403"
     inkscape:cy="111.55096"
     inkscape:window-width="1920"
     inkscape:window-height="1017"
     inkscape:window-x="1912"
     inkscape:window-y="-8"
     inkscape:window-maximized="1"
     inkscape:current-layer="svg1" />
  <path
     id="Auswahl"
     fill="none"
     stroke="black"
     stroke-width="1"
     d="M 364.53,22.83            C 371.07,20.89 372.06,25.71 375.23,30.20              375.23,30.20 389.78,50.00 389.78,50.00              389.78,50.00 395.21,58.19 395.21,58.19              395.21,58.19 412.23,82.19 412.23,82.19              418.42,90.73 422.98,92.40 423.00,104.00              423.00,104.00 423.00,207.00 423.00,207.00              423.00,207.00 423.00,464.00 423.00,464.00              423.01,467.00 422.78,469.83 424.23,472.56              426.49,476.84 430.42,478.21 434.27,480.62              434.27,480.62 460.42,495.90 460.42,495.90              463.04,497.44 472.34,502.15 473.43,504.41              474.01,505.64 473.97,507.65 474.00,509.00              474.04,511.75 474.45,517.11 472.26,519.05              470.81,520.33 457.70,523.48 455.00,524.10              455.00,524.10 418.00,534.00 418.00,534.00              413.94,535.06 403.16,536.94 401.02,540.34              399.78,542.31 400.00,545.71 400.00,548.00              400.00,548.00 400.00,634.00 400.00,634.00              399.98,646.82 395.73,647.59 387.00,656.33              387.00,656.33 373.34,670.04 373.34,670.04              371.59,671.91 369.85,674.73 367.00,674.73              364.15,674.73 362.41,671.91 360.66,670.04              360.66,670.04 347.00,656.33 347.00,656.33              338.27,647.59 334.02,646.82 334.00,634.00              334.00,634.00 334.00,546.00 334.00,546.00              333.96,544.13 334.01,541.99 332.98,540.34              330.84,536.94 320.06,535.06 316.00,534.00              316.00,534.00 279.00,524.10 279.00,524.10              276.30,523.48 263.19,520.33 261.74,519.05              259.55,517.11 259.96,511.75 260.00,509.00              260.03,507.65 259.99,505.64 260.57,504.41              261.66,502.15 270.96,497.44 273.58,495.90              273.58,495.90 299.73,480.62 299.73,480.62              303.58,478.21 307.51,476.84 309.77,472.56              311.22,469.83 310.99,467.00 311.00,464.00              311.00,464.00 311.00,189.00 311.00,189.00              311.00,189.00 311.00,104.00 311.00,104.00              311.02,91.47 316.75,89.89 322.88,80.58              322.88,80.58 350.83,41.50 350.83,41.50              353.90,37.30 361.14,25.46 364.53,22.83 Z            M 369.00,54.00            C 369.00,54.00 365.00,54.00 365.00,54.00              362.97,58.75 360.26,61.25 357.48,65.42              357.48,65.42 336.04,95.91 336.04,95.91              330.09,104.86 326.02,104.84 326.00,117.00              326.00,117.00 326.00,473.00 326.00,473.00              326.00,473.00 362.00,473.00 362.00,473.00              362.00,473.00 362.00,246.00 362.00,246.00              362.00,246.00 372.00,246.00 372.00,246.00              372.00,246.00 372.00,473.00 372.00,473.00              372.00,473.00 408.00,473.00 408.00,473.00              408.00,473.00 408.00,117.00 408.00,117.00              407.98,104.84 403.91,104.86 397.96,95.91              397.96,95.91 376.52,65.42 376.52,65.42              373.74,61.25 371.03,58.75 369.00,54.00 Z            M 443.00,508.00            C 443.00,508.00 422.15,496.12 422.15,496.12              422.15,496.12 408.96,488.80 408.96,488.80              408.96,488.80 400.00,488.00 400.00,488.00              400.00,488.00 334.00,488.00 334.00,488.00              334.00,488.00 326.01,488.53 326.01,488.53              326.01,488.53 304.85,500.13 304.85,500.13              304.85,500.13 291.00,509.00 291.00,509.00              306.92,512.58 339.70,523.98 354.00,524.00              354.00,524.00 380.00,524.00 380.00,524.00              390.35,523.98 404.75,519.39 415.00,516.55              421.38,514.79 438.16,510.96 443.00,508.00 Z            M 385.00,539.00            C 385.00,539.00 349.00,539.00 349.00,539.00              349.00,539.00 349.00,605.00 349.00,605.00              349.00,605.00 385.00,605.00 385.00,605.00              385.00,605.00 385.00,539.00 385.00,539.00 Z            M 385.00,620.00            C 385.00,620.00 349.00,620.00 349.00,620.00              349.00,632.75 350.35,631.68 359.33,640.67              361.06,642.40 364.50,646.49 367.00,646.49              369.50,646.49 372.94,642.40 374.67,640.67              383.65,631.68 385.00,632.75 385.00,620.00 Z"
     style="fill:#000000;fill-opacity:1" />
</svg>
