<?xml version="1.0" encoding="UTF-8" standalone="no"?>
<svg
   width="2.42in"
   height="2.42in"
   viewBox="0 0 726 726"
   version="1.1"
   id="svg1"
   sodipodi:docname="Coin.svg"
   inkscape:version="1.3.2 (091e20e, 2023-11-25, custom)"
   xmlns:inkscape="http://www.inkscape.org/namespaces/inkscape"
   xmlns:sodipodi="http://sodipodi.sourceforge.net/DTD/sodipodi-0.dtd"
   xmlns="http://www.w3.org/2000/svg"
   xmlns:svg="http://www.w3.org/2000/svg">
  <defs
     id="defs1" />
  <sodipodi:namedview
     id="namedview1"
     pagecolor="#ffffff"
     bordercolor="#000000"
     borderopacity="0.25"
     inkscape:showpageshadow="2"
     inkscape:pageopacity="0.0"
     inkscape:pagecheckerboard="0"
     inkscape:deskcolor="#d1d1d1"
     inkscape:document-units="in"
     inkscape:zoom="3.5339186"
     inkscape:cx="116.01852"
     inkscape:cy="116.16"
     inkscape:window-width="1920"
     inkscape:window-height="1017"
     inkscape:window-x="1912"
     inkscape:window-y="-8"
     inkscape:window-maximized="1"
     inkscape:current-layer="svg1" />
  <path
     id="Auswahl"
     fill="none"
     stroke="black"
     stroke-width="1"
     d="M 337.00,184.42            C 353.19,182.45 384.58,184.80 402.00,185.00              402.00,185.00 433.00,188.87 433.00,188.87              455.80,192.04 469.19,195.30 491.00,202.67              500.53,205.88 506.78,207.67 516.00,212.25              538.95,223.64 564.96,240.29 565.00,269.00              565.00,269.00 565.00,332.00 565.00,332.00              564.97,348.43 560.30,354.87 549.00,366.00              536.30,378.51 527.76,382.68 512.17,390.21              504.69,393.82 481.02,402.17 473.00,404.10              473.00,404.10 463.00,405.84 463.00,405.84              463.00,405.84 455.00,408.16 455.00,408.16              455.00,408.16 447.00,409.32 447.00,409.32              447.00,409.32 437.00,411.57 437.00,411.57              437.00,411.57 395.00,416.00 395.00,416.00              395.00,416.00 373.00,416.00 373.00,416.00              373.00,416.00 357.00,417.00 357.00,417.00              357.00,417.00 322.00,416.00 322.00,416.00              315.86,415.92 314.40,414.99 309.00,414.29              309.00,414.29 299.00,413.70 299.00,413.70              299.00,413.70 281.00,410.43 281.00,410.43              252.67,405.68 217.56,395.94 193.00,380.94              175.23,370.09 159.03,354.07 159.00,332.00              159.00,332.00 159.00,269.00 159.00,269.00              159.01,263.43 159.40,258.27 161.47,253.00              167.16,238.47 188.02,222.28 202.00,215.69              202.00,215.69 215.28,209.13 215.28,209.13              215.28,209.13 251.00,196.90 251.00,196.90              251.00,196.90 261.00,195.16 261.00,195.16              261.00,195.16 270.00,192.63 270.00,192.63              270.00,192.63 278.00,191.49 278.00,191.49              278.00,191.49 288.00,189.27 288.00,189.27              288.00,189.27 323.00,185.17 323.00,185.17              323.00,185.17 337.00,184.42 337.00,184.42 Z            M 345.00,191.14            C 345.00,191.14 317.00,193.28 317.00,193.28              282.44,197.40 247.74,204.09 216.00,218.84              198.58,226.93 178.33,239.36 169.40,257.00              159.01,277.51 178.12,298.98 194.08,309.74              220.95,327.83 259.30,337.88 291.00,343.08              291.00,343.08 306.00,346.05 306.00,346.05              306.00,346.05 315.00,346.05 315.00,346.05              320.40,346.99 321.86,347.92 328.00,348.04              328.00,348.04 340.00,348.04 340.00,348.04              340.00,348.04 353.00,349.00 353.00,349.00              353.00,349.00 368.00,348.00 368.00,348.00              368.00,348.00 389.00,348.00 389.00,348.00              403.90,347.98 426.09,344.25 441.00,341.46              462.89,337.36 481.40,332.74 502.00,323.87              517.99,316.99 530.46,310.40 543.00,298.00              548.56,292.50 553.90,286.73 556.22,279.00              563.86,253.54 535.63,232.42 516.00,222.34              501.14,214.71 485.82,209.91 470.00,204.91              470.00,204.91 456.00,200.66 456.00,200.66              456.00,200.66 427.00,195.87 427.00,195.87              427.00,195.87 397.00,191.96 397.00,191.96              397.00,191.96 384.00,191.96 384.00,191.96              384.00,191.96 372.00,191.14 372.00,191.14              372.00,191.14 345.00,191.14 345.00,191.14 Z            M 167.00,295.00            C 165.08,299.84 165.99,318.65 166.00,325.00              166.05,360.10 201.63,377.44 230.00,388.19              255.73,397.94 271.35,400.80 298.00,405.14              298.00,405.14 306.00,406.99 306.00,406.99              306.00,406.99 314.00,406.99 314.00,406.99              314.00,406.99 324.00,408.92 324.00,408.92              324.00,408.92 337.00,408.92 337.00,408.92              337.00,408.92 353.00,410.00 353.00,410.00              353.00,410.00 366.00,409.00 366.00,409.00              366.00,409.00 389.00,409.00 389.00,409.00              408.25,408.97 451.11,401.49 470.00,396.26              470.00,396.26 485.00,391.33 485.00,391.33              504.81,384.73 527.02,374.75 542.00,360.00              547.81,354.27 552.37,349.79 555.52,342.00              557.15,337.97 557.95,331.37 558.00,327.00              558.07,320.71 558.88,300.73 557.00,296.00              557.00,296.00 549.00,304.01 549.00,304.01              530.96,321.62 512.57,329.81 489.00,337.67              489.00,337.67 472.00,343.10 472.00,343.10              472.00,343.10 462.00,344.84 462.00,344.84              462.00,344.84 454.00,347.16 454.00,347.16              454.00,347.16 445.00,348.51 445.00,348.51              416.67,354.36 401.58,354.96 373.00,355.00              373.00,355.00 356.00,356.00 356.00,356.00              356.00,356.00 325.00,355.00 325.00,355.00              316.04,354.99 316.11,353.88 309.00,353.00              309.00,353.00 301.00,353.00 301.00,353.00              301.00,353.00 293.00,351.28 293.00,351.28              293.00,351.28 257.00,344.29 257.00,344.29              232.55,337.59 203.37,328.90 183.58,312.55              177.40,307.44 170.84,302.16 167.00,295.00 Z"
     style="fill:#000000;fill-opacity:1" />
</svg>
